<?xml version="1.0" encoding="UTF-8"?>
<svg width="178px" height="200px" viewBox="0 0 178 200" version="1.1" xmlns="http://www.w3.org/2000/svg" xmlns:xlink="http://www.w3.org/1999/xlink">
    <defs>
        <path d="M80.9257504,2.11121643 C85.8018957,-0.703633491 91.8091627,-0.703633491 96.6849921,2.11121643 C113.515324,11.8278041 152.807267,34.5124803 169.637599,44.2290679 C174.513428,47.0439179 177.51722,52.2464455 177.51722,57.8764613 C177.51722,77.3096367 177.51722,122.678673 177.51722,142.111848 C177.51722,147.741864 174.513428,152.944392 169.637599,155.759242 C152.807267,165.476145 113.515324,188.160506 96.6849921,197.877093 C91.8091627,200.692259 85.8018957,200.692259 80.9257504,197.877093 C64.0954186,188.160506 24.8037915,165.476145 7.97345972,155.759242 C3.09731438,152.944392 0.0938388626,147.741864 0.0938388626,142.111848 C0.0938388626,122.678673 0.0938388626,77.3096367 0.0938388626,57.8764613 C0.0938388626,52.2464455 3.09731438,47.0439179 7.97345972,44.2290679 C24.8037915,34.5124803 64.0954186,11.8278041 80.9257504,2.11121643 Z" id="path-1"></path>
    </defs>
    <g id="Landing-Pages" stroke="none" stroke-width="1" fill="none" fill-rule="evenodd">
        <g id="Micropage" transform="translate(-862.000000, -160.000000)">
            <g id="LOGO" transform="translate(862.000000, 160.000000)">
                <g id="Group-9">
                    <mask id="mask-2" fill="white">
                        <use xlink:href="#path-1"></use>
                    </mask>
                    <g id="Clip-2"></g>
                    <path d="M80.9257504,2.11121643 C85.8018957,-0.703633491 91.8091627,-0.703633491 96.6849921,2.11121643 C113.515324,11.8278041 152.807267,34.5124803  169.637599,44.2290679 C174.513428,47.0439179 177.51722,52.2464455 177.51722,57.8764613 C177.51722,77.3096367 177.51722,122.678673 177.51722,142.111848  C177.51722,147.741864 174.513428,152.944392 169.637599,155.759242 C152.807267,165.476145 113.515324,188.160506 96.6849921,197.877093 C91.8091627,200.692259  85.8018957,200.692259 80.9257504,197.877093 C64.0954186,188.160506 24.8037915,165.476145 7.97345972,155.759242 C3.09731438,152.944392 0.0938388626,147.741864  0.0938388626,142.111848 C0.0938388626,122.678673 0.0938388626,77.3096367 0.0938388626,57.8764613 C0.0938388626,52.2464455 3.09731438,47.0439179  7.97345972,44.2290679 C24.8037915,34.5124803 64.0954186,11.8278041 80.9257504,2.11121643 Z" id="Fill-1" fill="#522768" mask="url(#mask-2)"></path>
                    <polygon id="Fill-3" fill="#442056" mask="url(#mask-2)" points="0.0938388626 151.221169 46.171248 99.9943128 88.8053712 202.426224"></polygon>
                    <polygon id="Fill-4" fill="#4e2563" mask="url(#mask-2)" points="46.171248 99.9943128 0.715323855 48.4192733 0.0938388626 151.221169"></polygon>
                    <polygon id="Fill-5" fill="#522768" mask="url(#mask-2)" points="46.171248 99.9943128 88.8053712 -2.43791469 0.715323855 48.4192733"></polygon>
                    <polyline id="Fill-6" fill="#602e7a" mask="url(#mask-2)" points="88.8053712 -2.43791469 177.51722 151.210111 46.171248 99.9943128"></polyline>
                    <polygon id="Fill-7" fill="#502a63" mask="url(#mask-2)" points="88.8053712 202.600316 177.51722 151.221169 46.171248 99.9943128"></polygon>
                    <polygon id="Fill-8" fill="#522768" mask="url(#mask-2)" points="177.51722 151.210111 177.51722 48.7781991 88.8053712 -2.43791469"></polygon>
                </g>
                <path id="P" fill="#FFFFFF" d="M 87.00,60.71 C 82.67,61.42 78.49,62.20 74.50,64.13 71.15,65.75 68.84,67.21 66.00,69.65 51.21,82.33 53.00,97.60 53.00,115.00 53.00,115.00 53.00,153.50 53.00,153.50 53.00,156.12 53.00,158.79 54.78,160.93 57.34,164.01 62.93,163.67 65.22,160.48 66.58,158.59 66.50,156.21 66.50,154.00 66.50,154.00 66.50,98.50 66.50,98.50 66.54,95.15 67.42,90.48 68.95,87.50 70.44,84.61 72.97,81.45 75.51,79.41 77.69,77.66 80.80,75.91 83.50,75.14 101.80,69.95 118.11,86.14 113.06,104.50 110.99,111.99 104.70,117.81 97.50,120.33 96.44,120.70 95.09,121.16 94.00,121.34 91.47,121.76 84.55,120.91 83.68,127.50 83.10,131.95 86.88,134.88 91.00,134.99 99.61,135.23 109.12,130.95 115.49,125.35 117.77,123.35 120.25,120.07 121.91,117.50 135.88,95.84 122.72,66.05 97.50,61.38 93.26,60.59 91.42,60.17 87.00,60.71 Z" />
                <path id="Cloud" fill="#f0985d" d="M 82.00,37.21 C 82.00,37.21 77.00,37.73 77.00,37.73 63.45,40.13 49.32,48.23 40.76,59.00 38.16,62.26 35.81,65.81 33.89,69.50 33.09,71.03 31.19,75.40 30.29,76.36 30.29,76.36 21.58,82.01 21.58,82.01 15.14,87.26 10.51,95.59 10.50,104.00 10.50,104.00 10.50,109.50 10.50,109.50 10.64,120.99 19.70,131.48 30.00,135.60 33.05,136.82 35.65,137.67 39.00,137.48 44.30,137.17 45.13,131.45 42.30,128.66 40.54,126.91 36.83,127.25 32.00,124.74 25.12,121.15 20.55,113.23 20.87,105.50 21.15,98.74 25.27,92.17 31.00,88.60 33.48,87.06 37.04,86.44 38.68,84.72 39.97,83.38 40.46,81.20 41.16,79.50 42.51,76.21 44.07,72.93 46.10,70.00 54.65,57.67 70.15,47.68 85.50,47.50 91.13,47.44 93.92,47.30 99.50,48.69 99.50,48.69 110.00,51.89 110.00,51.89 112.28,52.16 117.15,50.33 121.00,50.55 137.32,51.47 149.11,63.90 150.29,80.00 150.50,82.09 149.82,83.30 150.29,85.50 150.29,85.50 154.22,95.50 154.22,95.50 156.41,102.89 155.59,110.53 152.34,117.50 148.84,124.99 140.95,132.16 133.00,134.61 133.00,134.61 122.50,136.61 122.50,136.61 122.50,136.61 112.00,143.31 112.00,143.31 105.57,146.81 96.32,149.20 89.00,149.53 86.04,149.60 81.04,148.25 78.52,149.53 75.00,151.45 74.79,156.12 78.05,158.33 80.07,159.69 84.08,159.99 86.50,160.00 96.27,160.05 106.16,158.15 115.00,153.87 115.00,153.87 126.50,147.04 126.50,147.04 126.50,147.04 137.00,144.61 137.00,144.61 143.73,142.53 151.27,137.35 155.78,132.00 164.46,121.70 167.71,108.16 165.10,95.00 163.81,88.52 161.14,84.34 160.60,82.50 160.40,81.20 160.52,78.46 160.60,77.00 160.38,66.58 153.31,54.45 145.00,48.37 137.23,42.70 129.11,39.96 119.50,40.00 119.50,40.00 111.00,40.66 111.00,40.66 111.00,40.66 100.00,37.76 100.00,37.76 96.30,37.01 85.82,36.75 82.00,37.21 Z" />
            </g>
        </g>
    </g>
</svg>